<svg xmlns="http://www.w3.org/2000/svg" width="167" height="26.016"><g data-name="Gruppe 84" fill="#264686"><path data-name="Pfad 453" d="M6.099 4.639v16.487h16.467v-5.6l6.1 1.261v3.076c0 4.891-1.576 6.151-6.506 6.151H6.506c-4.93 0-6.506-1.26-6.506-6.151V6.151C0 1.261 1.576 0 6.506 0H22.16c4.93 0 6.506 1.261 6.506 6.151v2.471l-6.1.957V4.638z"/><path data-name="Pfad 454" d="M33.639 0h22.465c4.015 0 5.9 1.412 5.9 5.042v6.1c0 3.631-1.88 5.042-5.9 5.042h-3.457l12.1 9.831h-8.742l-10.566-9.83h-5.8v9.831h-6zm6 4.487v7.26h13.723c1.881 0 2.745-.353 2.745-2.068V6.554c0-1.715-.864-2.068-2.745-2.068z"/><path data-name="Pfad 455" d="M67.795 0h26.836v4.437H73.894v5.8h12.1v4.436h-12.1v6.454h20.99v4.891H67.795z"/><path data-name="Pfad 456" d="M112.415 0h5.9l15.044 26.016h-6.861l-3.152-5.7h-16.62l-3.049 5.7h-6.1zm8.387 15.63l-5.641-10.588-5.845 10.588z"/><path data-name="Pfad 457" d="M136.149 0h4.168l18.45 15.327a22.6 22.6 0 013 2.824c-.153-2.168-.255-3.68-.255-4.487V0h5.49v26.016h-4.166L143.569 9.933a21.41 21.41 0 01-2.185-2.118c.2 2.016.254 3.378.254 4.135v14.066h-5.489z"/></g></svg>