<svg xmlns="http://www.w3.org/2000/svg" width="103.344" height="85" viewBox="0 0 103.344 85">
  <g id="Gruppe_10" data-name="Gruppe 10" transform="translate(-61.149 -244.433)" opacity="0.266" style="mix-blend-mode: luminosity;isolation: isolate">
    <path id="Pfad_20" data-name="Pfad 20" d="M127.362,244.433a42.5,42.5,0,1,1-42.5,42.5,42.5,42.5,0,0,1,42.5-42.5" transform="translate(-18.532 0)" fill="#013d93" fill-rule="evenodd"/>
    <path id="Pfad_21" data-name="Pfad 21" d="M211.863,359.95c5.526,2.979,10.9,3.577,13.04.25,4.234-6.577-1.918-22.5-13.741-35.837s-24.841-18.821-29.075-12.244,1.918,22.95,13.741,36.29q.466.525.938,1.039l1,1.427c1.5,2.093,4.072,6.484,6.037,5.065s-3.4-4.044-4.809-5.737c-.771-.923-1.668-1.755-2.478-2.677-11.074-12.605-17.063-28.315-13.1-34.531s16.385-.355,27.459,12.249,16.836,27.636,12.87,33.851c-2.024,3.172-6.339,3.482-11.883.854" transform="translate(-93.468 -50.722)" fill="#fff" fill-rule="evenodd"/>
    <path id="Pfad_22" data-name="Pfad 22" d="M72.932,337.955l.027-1.238c30.551-30.777,45.561-31.131,70.782-53.067-25.119,16.715-61.645,16.71-81.623,29.131l-.969-.46c28.936-19.076,79.385-20.878,103.344-51.535-12.538,32.139-56.884,42.771-91.56,77.169" transform="translate(0 -12.78)" fill="red" fill-rule="evenodd"/>
    <path id="Pfad_23" data-name="Pfad 23" d="M116.529,401.093h5.58l5.749,9.729v-8.105l-1.624-1.624h5.335l-1.422,1.422V414.7l1.379,2.335h-6.809l-6.135-10.381v8.518l1.863,1.863h-5.758l1.84-1.841V403.172l-1.229-2.079Z" transform="translate(-41.841 -122.431)" fill="#fff" fill-rule="evenodd"/>
    <path id="Pfad_24" data-name="Pfad 24" d="M213.629,411.257l-2.183-5.926-1.641,5.926ZM210.4,401.093h6.07l6.1,15.937h-8.924l1.545-1.545-.768-2.085h-5.207l-.56,2.021,1.14,1.61h-5.3l2.068-2.068,3.408-12.3-1.567-1.567h2Z" transform="translate(-112.019 -122.431)" fill="#fff" fill-rule="evenodd"/>
    <path id="Pfad_25" data-name="Pfad 25" d="M378.787,411.257l-2.183-5.926-1.641,5.926Zm-3.233-10.164h6.07l6.1,15.937H378.8l1.545-1.545-.768-2.085H374.37l-.56,2.021,1.14,1.61h-5.3l2.068-2.068,3.408-12.3-1.567-1.567h2Z" transform="translate(-241.091 -122.431)" fill="#fff" fill-rule="evenodd"/>
    <path id="Pfad_26" data-name="Pfad 26" d="M300.135,412.84l1.039,1.039c2.529,1.959,7.433,1.836,7.433-.06,0-2.361-8.76-1.721-8.76-7.792,0-2.958,2.457-4.846,6.263-4.935,1.648,0,3.4.576,5.088.73l1.031-.73v4.189l-.543-.543h0a8.174,8.174,0,0,0-4.308-1.583c-1.56-.089-2.535.366-2.535,1.417,0,1.5,2.252,1.661,4.474,2.759s4.729,3.092,4.7,5.293c0,2.879-3.617,4.974-7.456,5.07a7.03,7.03,0,0,1-4.351-1.018l-2.071,1.467v-5.3Z" transform="translate(-186.544 -122.431)" fill="#fff" fill-rule="evenodd"/>
    <path id="Pfad_27" data-name="Pfad 27" d="M399.581,530.911a.346.346,0,1,1-.346.346.346.346,0,0,1,.346-.346" transform="translate(-264.216 -223.884)" fill="#fff" fill-rule="evenodd"/>
    <path id="Pfad_28" data-name="Pfad 28" d="M414.514,540.413a.406.406,0,1,1-.406.406.406.406,0,0,1,.406-.406" transform="translate(-275.839 -231.31)" fill="#fff" fill-rule="evenodd"/>
    <path id="Pfad_29" data-name="Pfad 29" d="M403.083,540.688a.406.406,0,1,1-.406.406.406.406,0,0,1,.406-.406" transform="translate(-266.906 -231.525)" fill="#fff" fill-rule="evenodd"/>
    <path id="Pfad_30" data-name="Pfad 30" d="M420.179,496.822a.5.5,0,1,1-.5.5.5.5,0,0,1,.5-.5" transform="translate(-280.195 -197.243)" fill="#fff" fill-rule="evenodd"/>
    <path id="Pfad_31" data-name="Pfad 31" d="M426.586,510.8a.5.5,0,1,1-.5.5.5.5,0,0,1,.5-.5" transform="translate(-285.202 -208.17)" fill="#fff" fill-rule="evenodd"/>
    <path id="Pfad_32" data-name="Pfad 32" d="M417.193,514.935a.331.331,0,1,1-.331.331.331.331,0,0,1,.331-.331" transform="translate(-277.991 -211.399)" fill="#fff" fill-rule="evenodd"/>
    <path id="Pfad_33" data-name="Pfad 33" d="M399.165,499.649a.481.481,0,1,1-.481.481.481.481,0,0,1,.481-.481" transform="translate(-263.785 -199.452)" fill="#fff" fill-rule="evenodd"/>
    <path id="Pfad_34" data-name="Pfad 34" d="M395.877,489.871a.361.361,0,1,1-.361.361.361.361,0,0,1,.361-.361" transform="translate(-261.309 -191.811)" fill="#fff" fill-rule="evenodd"/>
    <path id="Pfad_35" data-name="Pfad 35" d="M369.617,514.248a.406.406,0,1,1-.406.406.406.406,0,0,1,.406-.406" transform="translate(-240.752 -210.862)" fill="#fff" fill-rule="evenodd"/>
    <path id="Pfad_36" data-name="Pfad 36" d="M368.576,500.613a.466.466,0,1,1-.466.466.466.466,0,0,1,.466-.466" transform="translate(-239.891 -200.206)" fill="#fff" fill-rule="evenodd"/>
    <path id="Pfad_37" data-name="Pfad 37" d="M362.487,575.531a.436.436,0,1,1-.436.436.436.436,0,0,1,.436-.436" transform="translate(-235.156 -258.755)" fill="#fff" fill-rule="evenodd"/>
    <path id="Pfad_38" data-name="Pfad 38" d="M355.035,532.976a.421.421,0,1,1-.421.421.421.421,0,0,1,.421-.421" transform="translate(-229.344 -225.498)" fill="#fff" fill-rule="evenodd"/>
    <path id="Pfad_39" data-name="Pfad 39" d="M355.556,510.942a.391.391,0,1,1-.391.391.391.391,0,0,1,.391-.391" transform="translate(-229.775 -208.278)" fill="#fff" fill-rule="evenodd"/>
    <path id="Pfad_40" data-name="Pfad 40" d="M298.708,543.03a.421.421,0,1,1-.421.421.421.421,0,0,1,.421-.421" transform="translate(-185.324 -233.355)" fill="#fff" fill-rule="evenodd"/>
    <path id="Pfad_41" data-name="Pfad 41" d="M260.515,556.526a.376.376,0,1,1-.376.376.376.376,0,0,1,.376-.376" transform="translate(-155.512 -243.902)" fill="#fff" fill-rule="evenodd"/>
    <path id="Pfad_42" data-name="Pfad 42" d="M200.411,579.635a.394.394,0,1,1-.394.394.394.394,0,0,1,.394-.394" transform="translate(-108.526 -261.962)" fill="#fff" fill-rule="evenodd"/>
    <path id="Pfad_43" data-name="Pfad 43" d="M216.619,561.042a.43.43,0,1,1-.43.43.43.43,0,0,1,.43-.43" transform="translate(-121.164 -247.431)" fill="#fff" fill-rule="evenodd"/>
    <path id="Pfad_44" data-name="Pfad 44" d="M194.795,556.639a.393.393,0,1,1-.393.393.392.392,0,0,1,.393-.393" transform="translate(-104.138 -243.99)" fill="#fff" fill-rule="evenodd"/>
    <path id="Pfad_45" data-name="Pfad 45" d="M214.107,541.69a.468.468,0,1,1-.468.469.468.468,0,0,1,.468-.469" transform="translate(-119.172 -232.308)" fill="#fff" fill-rule="evenodd"/>
    <path id="Pfad_46" data-name="Pfad 46" d="M154.528,540.531a.57.57,0,1,1-.57.57.57.57,0,0,1,.57-.57" transform="translate(-72.531 -231.402)" fill="#fff" fill-rule="evenodd"/>
    <path id="Pfad_47" data-name="Pfad 47" d="M147.411,535.316a.4.4,0,1,1-.4.405.405.405,0,0,1,.4-.405" transform="translate(-67.098 -227.326)" fill="#fff" fill-rule="evenodd"/>
    <path id="Pfad_48" data-name="Pfad 48" d="M128.572,525.931a.456.456,0,1,1-.456.456.456.456,0,0,1,.456-.456" transform="translate(-52.335 -219.992)" fill="#fff" fill-rule="evenodd"/>
    <path id="Pfad_49" data-name="Pfad 49" d="M149.907,523.844a.468.468,0,1,1-.468.468.468.468,0,0,1,.468-.468" transform="translate(-68.999 -218.361)" fill="#fff" fill-rule="evenodd"/>
    <path id="Pfad_50" data-name="Pfad 50" d="M180.321,533.23a.4.4,0,1,1-.405.405.405.405,0,0,1,.405-.405" transform="translate(-92.817 -225.696)" fill="#fff" fill-rule="evenodd"/>
    <path id="Pfad_51" data-name="Pfad 51" d="M201.579,514.342a.456.456,0,1,1-.456.456.456.456,0,0,1,.456-.456" transform="translate(-109.39 -210.935)" fill="#fff" fill-rule="evenodd"/>
    <path id="Pfad_52" data-name="Pfad 52" d="M201.35,477.723a.342.342,0,1,1-.342.342.342.342,0,0,1,.342-.342" transform="translate(-109.3 -182.317)" fill="#fff" fill-rule="evenodd"/>
    <path id="Pfad_53" data-name="Pfad 53" d="M198.076,576.648l.236.811.811.236-.811.236-.236.811-.236-.811-.811-.236.811-.236Z" transform="translate(-106.191 -259.628)" fill="#fff" fill-rule="evenodd"/>
    <path id="Pfad_54" data-name="Pfad 54" d="M400.793,537.757l.236.811.811.236-.811.236-.236.811-.236-.811-.811-.236.811-.236Z" transform="translate(-264.615 -229.234)" fill="#fff" fill-rule="evenodd"/>
    <path id="Pfad_55" data-name="Pfad 55" d="M417.433,493.308l.285.98.98.285-.98.285-.285.98-.285-.98-.98-.285.98-.285Z" transform="translate(-277.449 -194.497)" fill="#fff" fill-rule="evenodd"/>
    <path id="Pfad_56" data-name="Pfad 56" d="M216.321,334.029l.285.98.98.285-.98.285-.285.98-.285-.98-.98-.285.98-.285Z" transform="translate(-120.279 -70.02)" fill="#fff" fill-rule="evenodd"/>
    <path id="Pfad_57" data-name="Pfad 57" d="M308.743,273.965l.285.98.98.285-.98.285-.285.98-.285-.98-.98-.285.98-.285Z" transform="translate(-192.507 -23.079)" fill="#fff" fill-rule="evenodd"/>
    <path id="Pfad_58" data-name="Pfad 58" d="M236.523,307.789a.415.415,0,1,1-.415.415.415.415,0,0,1,.415-.415" transform="translate(-136.731 -49.513)" fill="#fff" fill-rule="evenodd"/>
    <path id="Pfad_59" data-name="Pfad 59" d="M245.027,302.943a.272.272,0,1,1-.272.272.272.272,0,0,1,.272-.272" transform="translate(-143.489 -45.726)" fill="#fff" fill-rule="evenodd"/>
    <path id="Pfad_60" data-name="Pfad 60" d="M239.479,299.143a.358.358,0,1,1-.358.358.358.358,0,0,1,.358-.358" transform="translate(-139.086 -42.756)" fill="#fff" fill-rule="evenodd"/>
    <path id="Pfad_61" data-name="Pfad 61" d="M234.59,296a.315.315,0,1,1-.315.315.315.315,0,0,1,.315-.315" transform="translate(-135.299 -40.3)" fill="#fff" fill-rule="evenodd"/>
    <path id="Pfad_62" data-name="Pfad 62" d="M199.931,334.776a.372.372,0,1,1-.372.372.372.372,0,0,1,.372-.372" transform="translate(-108.168 -70.604)" fill="#fff" fill-rule="evenodd"/>
    <path id="Pfad_63" data-name="Pfad 63" d="M206.174,342.505a.458.458,0,1,1-.458.458.458.458,0,0,1,.458-.458" transform="translate(-112.98 -76.644)" fill="#fff" fill-rule="evenodd"/>
    <path id="Pfad_64" data-name="Pfad 64" d="M219.095,337.578a.49.49,0,1,1-.49.49.49.49,0,0,1,.49-.49" transform="translate(-123.053 -72.793)" fill="#fff" fill-rule="evenodd"/>
    <path id="Pfad_65" data-name="Pfad 65" d="M271.544,257.617a.458.458,0,1,1-.458.458.458.458,0,0,1,.458-.458" transform="translate(-164.067 -10.303)" fill="#fff" fill-rule="evenodd"/>
    <path id="Pfad_66" data-name="Pfad 66" d="M259.578,279.756a.544.544,0,1,1-.544.544.544.544,0,0,1,.544-.544" transform="translate(-154.648 -27.605)" fill="#fff" fill-rule="evenodd"/>
    <path id="Pfad_67" data-name="Pfad 67" d="M265.985,296.393a.4.4,0,1,1-.4.4.4.4,0,0,1,.4-.4" transform="translate(-159.767 -40.607)" fill="#fff" fill-rule="evenodd"/>
    <path id="Pfad_68" data-name="Pfad 68" d="M283.015,305.17a.4.4,0,1,1-.4.4.4.4,0,0,1,.4-.4" transform="translate(-173.076 -47.466)" fill="#fff" fill-rule="evenodd"/>
    <path id="Pfad_69" data-name="Pfad 69" d="M282.46,281.983a.5.5,0,1,1-.5.5.5.5,0,0,1,.5-.5" transform="translate(-172.564 -29.346)" fill="#fff" fill-rule="evenodd"/>
    <path id="Pfad_70" data-name="Pfad 70" d="M311.637,277.668a.456.456,0,1,1-.456.456.456.456,0,0,1,.456-.456" transform="translate(-195.401 -25.973)" fill="#fff" fill-rule="evenodd"/>
    <path id="Pfad_71" data-name="Pfad 71" d="M312.158,322.33a.472.472,0,1,1-.472.472.472.472,0,0,1,.472-.472" transform="translate(-195.796 -60.877)" fill="#fff" fill-rule="evenodd"/>
  </g>
</svg>
