<svg xmlns="http://www.w3.org/2000/svg" width="163.229" height="21.651"><path data-name="Pfad 19" d="M163.229 15.792v-5.037h-16.333v2.587h11.845v.952s-7.079 4.9-14.431 4.9c-7.759 0-13.886-4.084-13.886-8.3 0-4.084 6.263-8.3 14.023-8.3 6.807 0 12.117 3 13.342 6.535l5.173-.953c-2.314-4.492-9.8-8.169-18.652-8.169-10.619 0-19.195 4.9-19.195 10.891s8.576 10.619 19.195 10.755c5.991.136 14.7-2.723 18.924-5.854zm-42.067-4.765c0-5.991-8.576-11.027-19.2-11.027S82.767 5.037 82.767 11.027s8.576 10.619 19.195 10.619 19.2-4.629 19.2-10.619zm-41.522 0C79.64 5.036 71.063 0 60.44 0S41.109 5.037 41.109 11.027s8.713 10.619 19.331 10.619 19.2-4.629 19.2-10.619zM38.253 21.509V.677h-4.765l-14.157 18.11L4.765.677H-.004v20.829h3.948V5.854l12.8 15.655h4.9l12.8-15.655v15.655zm77.735-10.482c0 4.628-6.262 8.3-14.023 8.3s-13.886-3.676-13.886-8.3 6.127-8.441 13.886-8.441 14.023 3.812 14.023 8.441zm-41.658 0c0 4.628-6.263 8.3-13.886 8.3-7.76 0-14.023-3.676-14.023-8.3s6.263-8.441 14.023-8.441c7.623 0 13.886 3.812 13.886 8.441z" fill="#88112a" fill-rule="evenodd" opacity=".266" style="mix-blend-mode:luminosity;isolation:isolate"/></svg>