<svg xmlns="http://www.w3.org/2000/svg" width="103.344" height="85"><g data-name="Gruppe 10" opacity=".266" style="mix-blend-mode:luminosity;isolation:isolate" fill-rule="evenodd"><path data-name="Pfad 20" d="M47.681 0a42.5 42.5 0 11-42.5 42.5A42.5 42.5 0 0147.681 0" fill="#013d93"/><path data-name="Pfad 21" d="M57.246 64.795c5.526 2.979 10.9 3.577 13.04.25 4.234-6.577-1.918-22.5-13.741-35.837S31.704 10.387 27.47 16.964s1.918 22.95 13.741 36.29q.466.525.938 1.039l1 1.427c1.5 2.093 4.072 6.484 6.037 5.065s-3.4-4.044-4.809-5.737c-.771-.923-1.668-1.755-2.478-2.677-11.074-12.605-17.063-28.315-13.1-34.531s16.385-.355 27.459 12.249 16.836 27.636 12.87 33.851c-2.024 3.172-6.339 3.482-11.883.854" fill="#fff"/><path data-name="Pfad 22" d="M11.783 80.742l.027-1.238c30.551-30.777 45.561-31.131 70.782-53.067C57.473 43.152 20.947 43.147.969 55.568L0 55.108C28.936 36.032 79.385 34.23 103.344 3.573 90.806 35.712 46.46 46.344 11.784 80.742" fill="red"/><path data-name="Pfad 23" d="M13.539 34.229h5.58l5.749 9.729v-8.105l-1.624-1.624h5.335l-1.422 1.422v12.185l1.379 2.335h-6.809L15.592 39.79v8.518l1.863 1.863h-5.758l1.84-1.841V36.308l-1.229-2.079z" fill="#fff"/><path data-name="Pfad 24" d="M40.461 44.393l-2.183-5.926-1.641 5.926zm-3.229-10.164h6.07l6.1 15.937h-8.924l1.545-1.545-.768-2.085h-5.207l-.56 2.021 1.14 1.61h-5.3l2.068-2.068 3.408-12.3-1.567-1.567h2z" fill="#fff"/><path data-name="Pfad 25" d="M76.547 44.393l-2.183-5.926-1.641 5.926zm-3.233-10.164h6.07l6.1 15.937H76.56l1.545-1.545-.768-2.085H72.13l-.56 2.021 1.14 1.61h-5.3l2.068-2.068 3.408-12.3-1.567-1.567h2z" fill="#fff"/><path data-name="Pfad 26" d="M52.442 45.976l1.039 1.039c2.529 1.959 7.433 1.836 7.433-.06 0-2.361-8.76-1.721-8.76-7.792 0-2.958 2.457-4.846 6.263-4.935 1.648 0 3.4.576 5.088.73l1.031-.73v4.189l-.543-.543a8.174 8.174 0 00-4.308-1.583c-1.56-.089-2.535.366-2.535 1.417 0 1.5 2.252 1.661 4.474 2.759s4.729 3.092 4.7 5.293c0 2.879-3.617 4.974-7.456 5.07a7.03 7.03 0 01-4.351-1.018l-2.071 1.467v-5.3z" fill="#fff"/><path data-name="Pfad 27" d="M74.216 62.594a.346.346 0 11-.346.346.346.346 0 01.346-.346" fill="#fff"/><path data-name="Pfad 28" d="M77.526 64.67a.406.406 0 11-.406.406.406.406 0 01.406-.406" fill="#fff"/><path data-name="Pfad 29" d="M75.028 64.73a.406.406 0 11-.406.406.406.406 0 01.406-.406" fill="#fff"/><path data-name="Pfad 30" d="M78.835 55.146a.5.5 0 11-.5.5.5.5 0 01.5-.5" fill="#fff"/><path data-name="Pfad 31" d="M80.235 58.197a.5.5 0 11-.5.5.5.5 0 01.5-.5" fill="#fff"/><path data-name="Pfad 32" d="M78.053 59.103a.331.331 0 11-.331.331.331.331 0 01.331-.331" fill="#fff"/><path data-name="Pfad 33" d="M74.231 55.764a.481.481 0 11-.481.481.481.481 0 01.481-.481" fill="#fff"/><path data-name="Pfad 34" d="M73.419 53.627a.361.361 0 11-.361.361.361.361 0 01.361-.361" fill="#fff"/><path data-name="Pfad 35" d="M67.716 58.953a.406.406 0 11-.406.406.406.406 0 01.406-.406" fill="#fff"/><path data-name="Pfad 36" d="M67.536 55.974a.466.466 0 11-.466.466.466.466 0 01.466-.466" fill="#fff"/><path data-name="Pfad 37" d="M66.182 72.343a.436.436 0 11-.436.436.436.436 0 01.436-.436" fill="#fff"/><path data-name="Pfad 38" d="M64.542 63.045a.421.421 0 11-.421.421.421.421 0 01.421-.421" fill="#fff"/><path data-name="Pfad 39" d="M64.632 58.231a.391.391 0 11-.391.391.391.391 0 01.391-.391" fill="#fff"/><path data-name="Pfad 40" d="M52.235 65.242a.421.421 0 11-.421.421.421.421 0 01.421-.421" fill="#fff"/><path data-name="Pfad 41" d="M43.854 68.191a.376.376 0 11-.376.376.376.376 0 01.376-.376" fill="#fff"/><path data-name="Pfad 42" d="M30.736 73.24a.394.394 0 11-.394.394.394.394 0 01.394-.394" fill="#fff"/><path data-name="Pfad 43" d="M34.306 69.178a.43.43 0 11-.43.43.43.43 0 01.43-.43" fill="#fff"/><path data-name="Pfad 44" d="M29.508 68.216a.393.393 0 11-.393.393.392.392 0 01.393-.393" fill="#fff"/><path data-name="Pfad 45" d="M33.786 64.949a.468.468 0 11-.468.469.468.468 0 01.468-.469" fill="#fff"/><path data-name="Pfad 46" d="M20.848 64.696a.57.57 0 11-.57.57.57.57 0 01.57-.57" fill="#fff"/><path data-name="Pfad 47" d="M19.164 63.557a.4.4 0 11-.4.405.405.405 0 01.4-.405" fill="#fff"/><path data-name="Pfad 48" d="M15.088 61.506a.456.456 0 11-.456.456.456.456 0 01.456-.456" fill="#fff"/><path data-name="Pfad 49" d="M19.759 61.05a.468.468 0 11-.468.468.468.468 0 01.468-.468" fill="#fff"/><path data-name="Pfad 50" d="M26.355 63.101a.4.4 0 11-.405.405.405.405 0 01.405-.405" fill="#fff"/><path data-name="Pfad 51" d="M31.04 58.974a.456.456 0 11-.456.456.456.456 0 01.456-.456" fill="#fff"/><path data-name="Pfad 52" d="M30.901 50.973a.342.342 0 11-.342.342.342.342 0 01.342-.342" fill="#fff"/><path data-name="Pfad 53" d="M30.736 72.587l.236.811.811.236-.811.236-.236.811-.236-.811-.811-.236.811-.236z" fill="#fff"/><path data-name="Pfad 54" d="M75.029 64.09l.236.811.811.236-.811.236-.236.811-.236-.811-.811-.236.811-.236z" fill="#fff"/><path data-name="Pfad 55" d="M78.835 54.378l.285.98.98.285-.98.285-.285.98-.285-.98-.98-.285.98-.285z" fill="#fff"/><path data-name="Pfad 56" d="M34.893 19.576l.285.98.98.285-.98.285-.285.98-.285-.98-.98-.285.98-.285z" fill="#fff"/><path data-name="Pfad 57" d="M55.087 6.453l.285.98.98.285-.98.285-.285.98-.285-.98-.98-.285.98-.285z" fill="#fff"/><path data-name="Pfad 58" d="M38.643 13.843a.415.415 0 11-.415.415.415.415 0 01.415-.415" fill="#fff"/><path data-name="Pfad 59" d="M40.389 12.784a.272.272 0 11-.272.272.272.272 0 01.272-.272" fill="#fff"/><path data-name="Pfad 60" d="M39.244 11.954a.358.358 0 11-.358.358.358.358 0 01.358-.358" fill="#fff"/><path data-name="Pfad 61" d="M38.142 11.267a.315.315 0 11-.315.315.315.315 0 01.315-.315" fill="#fff"/><path data-name="Pfad 62" d="M30.614 19.739a.372.372 0 11-.372.372.372.372 0 01.372-.372" fill="#fff"/><path data-name="Pfad 63" d="M32.045 21.428a.458.458 0 11-.458.458.458.458 0 01.458-.458" fill="#fff"/><path data-name="Pfad 64" d="M34.893 20.352a.49.49 0 11-.49.49.49.49 0 01.49-.49" fill="#fff"/><path data-name="Pfad 65" d="M46.328 2.881a.458.458 0 11-.458.458.458.458 0 01.458-.458" fill="#fff"/><path data-name="Pfad 66" d="M43.781 7.718a.544.544 0 11-.544.544.544.544 0 01.544-.544" fill="#fff"/><path data-name="Pfad 67" d="M45.069 11.353a.4.4 0 11-.4.4.4.4 0 01.4-.4" fill="#fff"/><path data-name="Pfad 68" d="M48.79 13.271a.4.4 0 11-.4.4.4.4 0 01.4-.4" fill="#fff"/><path data-name="Pfad 69" d="M48.747 8.204a.5.5 0 11-.5.5.5.5 0 01.5-.5" fill="#fff"/><path data-name="Pfad 70" d="M55.087 7.262a.456.456 0 11-.456.456.456.456 0 01.456-.456" fill="#fff"/><path data-name="Pfad 71" d="M55.213 17.02a.472.472 0 11-.472.472.472.472 0 01.472-.472" fill="#fff"/></g></svg>