<svg xmlns="http://www.w3.org/2000/svg" width="1692.137" height="638" viewBox="0 0 1692.137 638">
  <g id="Gruppe_49" data-name="Gruppe 49" transform="translate(9.48 6.983)" opacity="0.102">
    <g id="Gruppe_48" data-name="Gruppe 48" transform="translate(-9.48 -6.983)">
      <g id="Gruppe_36" data-name="Gruppe 36" transform="translate(18.871)">
        <path id="Pfad_284" data-name="Pfad 284" d="M1331.232,191.627l-2.729,1.414c-47.078,23.868-100.369,26.1-151.754,27.878-31.265,1.118-63.45,2.1-94.123,7.594a318.885,318.885,0,0,0-176.64,97.344c-10.948,11.835-21.4,25.183-31.791,37.741-24.92,30.739-52.371,62-90.342,75.121l-8.712,2.63c-39.516,10.027-78.605-2.531-114.571-16.734-33.04-12.657-65.554-27.484-99.087-27.747-47.111-.756-84.227,24.92-129.53,49.149-36.788,19.923-78.31,37.84-121.311,33.6l-2.6-.3c-43.231-5.293-79.625-32.021-109.837-59.7l-1.216-1.052c-30.015-27.846-55.2-54.869-86-69.959-2.893-1.479-5.852-2.86-8.909-4.077-34.388-13.347-86.66-9.863-110.133,25.939l-.855-.493c23.835-36.229,76.7-39.779,111.382-26.333,35.144,14.3,62.135,43.79,95.142,74.2l1.216,1.085c30.081,27.583,66.376,54.179,109.344,59.472l2.531.263c42.738,4.208,84.129-13.61,120.785-33.467,36.853-19.857,71.241-42.179,109.311-47.834a113.088,113.088,0,0,1,20.679-1.447c33.73.23,66.343,15.156,99.481,27.813,35.8,14.169,74.759,26.629,113.947,16.7,2.926-.756,5.819-1.644,8.613-2.63,37.708-12.986,65.028-44.152,89.915-74.792,10.389-12.526,20.843-25.906,31.791-37.774a320.393,320.393,0,0,1,177.265-97.64c30.771-5.556,62.989-6.509,94.287-7.627,51.253-1.775,104.413-4.011,151.293-27.78l2.7-1.381c41.982-22.158,73.575-58.749,105.234-93.925,8.778-9.665,17.819-19.824,27.155-29.193,38.892-40.207,103-85.641,166.778-72.293l-.3.953c-63.384-13.249-127,31.955-165.758,71.965-9.3,9.337-18.312,19.528-27.122,29.161C1405.038,132.715,1373.379,169.4,1331.232,191.627Z" transform="translate(8.906 6.983)" fill="#264586"/>
      </g>
      <g id="Gruppe_37" data-name="Gruppe 37" transform="translate(16.964 10.073)">
        <path id="Pfad_285" data-name="Pfad 285" d="M1353.4,176.634l-.756.395c-42.738,22.125-90.572,25.413-136.861,28.47-30.739,2.038-62.5,4.044-92.775,11.408Q1044.5,235.991,990.978,271.02c-20.383,13.38-40.4,30.574-59.9,51.154l-21.468,23.44c-6.641,7.266-13.479,14.893-20.514,21.8-35.933,36.295-68.381,56.25-105.761,66.507-39.089,10.685-77.422,1.381-112.895-9.3-32.382-9.337-64.633-21.073-98.265-20.12-48.787.822-88.041,23.736-134.921,44.809-11.769,5-24.163,10.356-36.722,14.958-21.829,7.561-51.878,15.813-82.846,12.887l-3.715-.395c-42.935-5.03-80.183-28.437-111.711-53.719l-1.414-1.085c-5.457-3.978-11.506-9.468-17.621-14.4-22.191-17.391-45.533-38.3-73.115-51.023-3.09-1.611-6.213-3.057-9.435-4.405-18.476-7.167-39.451-10.553-59.9-8.252-21.04,1.907-38.957,9.928-48.919,23.539l-.822-.592c10.159-13.808,28.339-21.961,49.675-23.868,20.58-2.3,41.752,1.052,60.327,8.285,31.659,12.887,58.058,35.933,82.781,55.592,6.115,4.931,12.164,10.389,17.621,14.367l1.447,1.085c31.4,25.216,68.513,48.557,111.185,53.521l3.715.394c30.771,2.926,60.655-5.326,82.419-12.821,12.526-4.57,24.887-9.928,36.656-14.958,46.979-21.139,86.232-44.086,135.316-44.842,33.8-.986,66.113,10.783,98.594,20.153,35.341,10.586,73.51,19.89,112.336,9.238,4.57-1.249,9.107-2.63,13.578-4.175,31.593-11.309,60.359-30.213,91.69-62,7.035-6.9,13.874-14.531,20.482-21.764,7.068-7.726,14.334-15.649,21.468-23.44,19.594-20.679,39.681-37.905,60.13-51.352q53.6-35.111,132.357-54.278c30.377-7.364,62.168-9.37,93.005-11.408,46.157-3.057,93.86-6.345,136.368-28.372l.789-.395c39.352-20.646,69.433-54.573,99.514-87.054,8.548-9.337,17.523-18.838,26.629-27.846,36.755-36.821,96.621-78.145,155.764-65.094l-.329.921c-58.65-12.887-118.188,28.207-154.712,64.8-9.074,8.975-18.049,18.476-26.6,27.813C1423.094,121.9,1392.947,155.857,1353.4,176.634Z" transform="translate(8.964 6.677)" fill="#264586"/>
      </g>
      <g id="Gruppe_38" data-name="Gruppe 38" transform="translate(15.09 20.14)">
        <path id="Pfad_286" data-name="Pfad 286" d="M1375.433,161.777c-38.6,20.054-81.2,24.328-122.527,28.437-29.621,2.959-60.2,6.016-89.421,14.827-48.557,14.6-99.12,30.739-142.384,58.223-20.942,13.315-41.325,30.9-64.8,55.066L942.5,332.6c-10.553,11.211-21.8,22.29-33.369,32.382-32.81,27.878-69.335,47.439-117.6,61.477-38.694,11.276-76.205,5.227-111.152-1.841-31.791-6.411-63.614-14.334-97.344-12.657-51.056,2.564-93.1,22.717-142.187,40.667-10.652,3.551-21.665,7.233-32.547,10.882-24.065,7.134-53.521,13.413-83.471,11.178l-5.359-.592c-42.574-4.471-80.348-25.314-113.158-47.768l-1.479-.986c-5.556-3.616-12.1-8.022-18.64-12.92-23.144-16.01-48.2-34.98-76.37-47.9l-10.356-4.668c-18.64-7.43-39.911-11.835-60.228-11.211-20.481-.033-37.708,5.227-47.472,15.747l-.789-.658C.94,353.047,18.5,347.623,39.207,347.721c20.481-.657,41.851,3.748,60.622,11.243l10.389,4.7c28.273,12.986,53.324,31.922,76.534,48,6.542,4.9,13.084,9.271,18.64,12.92l1.447.953c32.711,22.388,70.386,43.166,112.763,47.637l5.326.559c29.752,2.236,59.077-4.044,83.044-11.112,10.915-3.649,21.9-7.3,32.514-10.849,49.182-17.983,91.23-38.267,142.516-40.766,33.862-1.677,65.751,6.246,97.607,12.657,34.815,7.068,72.228,13.084,110.659,1.874,48.1-13.906,84.523-33.467,117.168-61.247,11.572-10.093,22.783-21.139,33.336-32.317,4.5-4.668,9.205-9.534,13.775-14.268,23.572-24.229,44.02-41.883,65.028-55.2,43.3-27.648,94.057-43.757,142.68-58.387,29.325-8.844,59.965-11.9,89.619-14.86,41.226-4.109,83.734-8.383,122.133-28.339l1.282-.69c36.13-19.1,64.271-49.938,92.38-79.46,8.482-8.876,17.358-17.983,26.3-26.662,34.486-33.4,90.21-70.65,144.817-57.927l-.329.921c-54.113-12.591-109.476,24.459-143.765,57.631-8.712,8.844-17.654,17.884-26.3,26.662-28.142,29.588-56.349,60.458-92.676,79.69Z" transform="translate(9.021 6.371)" fill="#264586"/>
      </g>
      <g id="Gruppe_39" data-name="Gruppe 39" transform="translate(13.315 30.176)">
        <path id="Pfad_287" data-name="Pfad 287" d="M1397.176,160.124c-34.519,19.359-72.129,24.85-108.555,30.376-28.01,4.207-56.94,8.628-84.622,19.288-9.337,3.494-19.035,7.095-28.4,10.589-42.508,15.616-86.2,31.3-124.335,56.937-26.892,18.218-50.1,42.6-69.7,64l-7.726,8.485c-14.1,15.152-28.766,31.089-44.711,43.674C893.983,421.526,857,435.93,813.865,450.226l-14.235,4.706c-38.234,12.763-74.923,9.733-109.278,6.025-31.2-3.85-62.562-8.236-96.325-5.669-54.771,4.6-100.764,24.065-153.43,40.18-7.989,2.21-16.306,4.528-24.525,6.845-25.972,6.952-54.475,12.015-84.063,10.339l-7.627-.82C282.4,507.341,244.4,487.59,210.468,466.555l-1.512-.963c-5.918-3.815-12.986-7.737-19.66-12.443-27.385-17.9-57.565-39.431-90.835-53.8C58.944,382.63,12.13,376.248-8.385,392.47l-.69-.856c20.876-16.436,68.118-10.054,107.93,6.774,33.369,14.51,63.548,35.973,90.934,53.87,6.707,4.67,13.742,8.664,19.66,12.443l1.545.963c33.8,20.964,71.669,40.715,113.486,45.136l7.561.784c29.489,1.711,57.894-3.351,83.767-10.268,8.219-2.318,16.5-4.635,24.525-6.881,43.33-13.334,82.452-29.021,125.387-36.508,9.172-1.6,18.575-2.638,28.24-3.637,33.895-2.6,65.291,1.747,96.523,5.633,34.256,3.708,70.847,6.7,108.884-6.025l14.2-4.635c43.067-14.3,79.953-28.7,114.966-56.616,15.879-12.55,30.508-28.415,44.579-43.531l7.726-8.521c19.627-21.391,42.9-45.849,69.926-64.138,38.07-25.777,81.959-41.428,124.532-57.044,9.4-3.494,19.068-7.095,28.4-10.589,27.78-10.731,56.776-15.152,84.819-19.395,36.36-5.49,73.871-10.981,108.226-30.233l3.551-2.032c32.448-19.252,58.518-48.915,84.359-77.472,8.449-9.2,17.128-18.86,26.037-27.737,32.218-32.586,83.865-68.524,133.9-55.154l-.329,1.034C1594.725-15.427,1543.439,20.3,1511.386,52.7c-8.876,8.842-17.556,18.468-25.972,27.666-25.938,28.593-52.042,58.363-84.654,77.722Z" transform="translate(9.075 6.065)" fill="#264586"/>
      </g>
      <g id="Gruppe_40" data-name="Gruppe 40" transform="translate(11.605 40.238)">
        <path id="Pfad_288" data-name="Pfad 288" d="M1418.362,144.744c-30.574,16.979-63.286,23.4-95.076,29.749-26.037,5.243-52.963,10.772-78.8,22.187-16.832,7.455-34.815,14.268-52.239,20.8-37.741,14.125-76.633,28.465-110.758,51.008-28.01,18.584-51.976,43.981-74.562,68.308l-2.433,2.568c-17.128,18.406-35.243,37.168-55.231,51.293-29,20.261-59.472,30.819-91.887,40.7-15.977,4.994-32.612,9.667-49.642,15.659-38.037,13.091-73.806,14.054-107.7,14.125-30.41-.464-61.247-1.32-94.912,2.319-62.99,7.384-117.267,25.04-178.35,37.6l-5,1.034c-26.366,5.422-54.212,9.31-82.551,7.847-3.748-.178-7.5-.357-11.178-.892-40.831-4.387-78.605-20.689-113.059-38.417l-1.808-.963c-6.213-3.282-13.413-7.1-20.613-10.915-24.887-14.482-52.962-30.355-81.663-44.8l-13.15-5.85C55.309,389.547,10.039,381.45-8.634,389.44l-.493-.963c21.106-8.918,68.513,1.819,107.24,18.62l13.183,5.921c28.733,14.411,56.809,30.355,81.7,44.8,7.233,3.817,14.432,7.633,20.613,10.915l1.841,1c34.355,17.657,72.03,33.922,112.7,38.274a96.57,96.57,0,0,0,11.112.892c28.24,1.462,56.02-2.39,82.353-7.847l4.931-1c61.116-12.591,115.393-30.248,178.481-37.6,33.763-3.674,64.633-2.818,95.043-2.354,33.829-.071,69.5-1.034,107.372-14.09,17.1-5.957,33.73-10.63,49.708-15.659,32.284-9.916,62.727-20.4,91.558-40.521,19.923-14.054,37.971-32.781,55.1-51.151l2.433-2.6c22.618-24.363,46.618-49.831,74.726-68.486,34.322-22.579,73.247-36.954,110.988-51.115,17.424-6.492,35.407-13.341,52.206-20.724,25.939-11.521,52.929-17.05,79-22.294,31.725-6.349,64.337-12.77,94.78-29.642l6.279-3.674c28.832-17.443,52.535-43.767,76.14-68.736,8.383-8.953,17.128-18.156,26-26.574,29.95-28.928,77.455-60.532,122.988-47.619l-.329,1c-45.105-12.841-92.249,18.62-122,47.334-8.843,8.454-17.589,17.621-25.939,26.538-23.671,25-47.439,51.436-76.4,68.986Z" transform="translate(9.127 5.759)" fill="#264586"/>
      </g>
      <g id="Gruppe_41" data-name="Gruppe 41" transform="translate(10.027 50.215)">
        <path id="Pfad_289" data-name="Pfad 289" d="M1438.565,130.151c-26.6,14.56-54.409,21.733-81.531,28.8-23.769,6.245-48.393,12.812-72.129,24.7-21.9,10.92-45.894,19.842-69.039,28.443-30.081,11.1-60.951,22.483-89.356,38.435q-7.545,4.229-14.827,8.993c-30.213,19.449-55.987,47.928-79.394,72.552-18.147,19.271-39.188,40.862-62.957,55.672-27.484,17.237-56.119,25.017-86.331,32.582-21.764,5.389-44.316,10.528-67.3,18.878-38.1,13.383-73.148,18.593-106.813,22.269-29.292,3.033-59.373,5.46-92.61,10.242-58.19,9.243-114.736,18.236-184.53,29.37L413.7,503.615c-21.7,2.605-44.415,4.925-67.329,3.711-5.72-.285-11.441-.393-17.1-1.213-39.056-4.247-75.943-17.165-110.265-31.583l-1.545-.678-21.5-9.671c-31.429-15.06-64.929-31.119-98.725-47.321-40.108-17.594-86.3-30.9-106.254-30.334l-.164-1.035c20.12-.607,66.54,12.776,106.78,30.405,33.763,16.2,67.3,32.3,98.758,47.357l21.468,9.636,1.545.714c39.155,16.63,81.827,30.655,127.031,32.689,22.848,1.213,45.5-1.106,67.132-3.676l18.049-2.569c69.795-11.1,126.406-20.127,184.563-29.37,33.27-4.782,63.384-7.173,92.676-10.242,33.632-3.676,68.578-8.886,106.582-22.233,23.046-8.351,45.631-13.454,67.395-18.914,30.114-7.566,58.617-15.417,86.035-32.4,23.671-14.774,44.612-36.294,62.759-55.493,23.44-24.7,49.281-53.209,79.592-72.766,32.382-20.984,68.94-34.438,104.38-47.535,23.145-8.6,47.078-17.487,68.94-28.407,23.835-11.919,48.524-18.486,72.359-24.767,30.443-7.887,61.773-15.952,91.164-34.509,24.953-15.881,46.354-38.257,67.428-59.847,8.482-8.743,17.391-17.487,26.333-25.766,27.681-25.266,71.077-52.638,112.2-40.112l-.329,1.035c-40.7-12.419-83.734,14.774-111.218,39.862-8.909,8.244-17.819,16.987-26.3,25.695-21.139,21.626-42.574,44.074-67.625,60.026Z" transform="translate(9.175 5.456)" fill="#264586"/>
      </g>
      <g id="Gruppe_42" data-name="Gruppe 42" transform="translate(8.285 60.179)">
        <path id="Pfad_290" data-name="Pfad 290" d="M981.378,389.017c-24.986,12.282-50.76,17.709-77.784,22.78-26,4.927-52.831,9.319-79.756,19.423-40.305,14.746-74.923,23.993-111.711,32.206-26.432,5.784-53.85,11.068-84.326,16.5q-15.632,2.517-30.8,5c-53.357,7.641-103.788,10.854-157.145,15.6-12.361.75-25.084,2.5-37.412,3.035-15.813.893-32.218,2.035-48.623,1.178-46.059-1.464-90.309-12.5-131.535-26.6l-.164-.036-10.06-3.749-12.3-4.57c-31.725-12.175-67.691-28.028-102.572-43.988C55.5,407.405,10.727,391.41-9.228,383.555l.23-1c19.988,7.855,64.8,23.886,106.55,42.274,34.914,15.924,70.814,31.813,102.539,43.952l12.3,4.606,10.191,3.785c41.16,14.068,85.378,25.1,131.239,26.529,16.372.857,32.777-.286,48.524-1.143,12.361-.571,25.084-2.321,37.412-3.071,53.423-4.677,103.788-7.962,157.112-15.567q15.189-2.517,30.771-5.034c30.509-5.391,57.894-10.676,84.326-16.46C748.717,454.214,783.27,445,823.509,430.22c27.057-10.1,53.949-14.5,79.953-19.459,29.95-5.641,58.321-11.6,85.772-26.993,24.986-13.818,46.585-34.955,67.987-57.234l3.945-4.07c24.986-26.421,50.4-53.735,80.447-73.051,31.495-20.03,66.77-32.634,100.928-44.988,27.911-10.033,56.743-20.423,82.452-34.741,21.534-11.925,43.626-19.566,64.929-26.778,27.221-9.212,55.3-18.388,82.057-36.169,20.843-13.782,39.451-32.348,57.729-50.2,8.942-8.6,18.213-17.6,27.648-25.707,25.281-21.6,64.535-44.773,101.454-32.634l-.362,1c-36.492-12-75.383,11-100.468,32.455-9.4,8.034-18.673,17.031-27.616,25.636-18.312,17.852-36.919,36.49-57.894,50.308-5.161,3.356-10.323,6.5-15.517,9.355-22.092,12-44.711,19.495-66.77,26.957-21.3,7.212-43.33,14.817-64.765,26.707-25.774,14.353-54.672,24.779-82.616,34.812-34.125,12.318-69.367,24.85-100.665,44.881-29.983,19.209-55.33,46.487-80.282,72.873l-3.912,4.07c-21.468,22.351-43.166,43.524-68.25,57.449Z" transform="translate(9.228 5.153)" fill="#264586"/>
      </g>
      <g id="Gruppe_43" data-name="Gruppe 43" transform="translate(6.444 70.086)">
        <path id="Pfad_291" data-name="Pfad 291" d="M1010.088,381.713c-28.372,14.074-58.683,18.933-87.975,22.755-29.588,3.929-59.965,7.323-90.013,18.861-32.876,12.574-62.168,23.791-90.572,34.686a771.109,771.109,0,0,1-101.914,30.114,549.381,549.381,0,0,1-91.427,9.931c-33.369,1.572-64.831.321-97.936,1.858l-2.071.071c-19.824.714-39.418,1.393-60.2,2.108-8.679.322-17.654.536-26.563.143-47.637-1-94.221-9.038-134.329-20.04-7.759-1.786-15.353-4.5-23.046-6.716l-.2-.036-6.246-1.929A911.3,911.3,0,0,1,97.5,434.974c-22.881-9.788-45.27-19.9-64.8-29.685C16.063,397,1.7,389.143-7.41,382.07l-1.874-1.429.559-.857,1.841,1.429c9.041,7.037,23.375,14.9,39.944,23.148,19.528,9.752,41.916,19.9,64.8,29.614a898.147,898.147,0,0,0,100.007,38.544l6.444,2c7.693,2.179,15.254,4.894,23.013,6.68,40.042,11,86.561,19.04,134.1,19.969,8.876.429,17.851.25,26.531-.071,20.777-.75,40.371-1.429,60.2-2.143l2.071-.036c33.139-1.572,64.568-.286,97.969-1.893a547.327,547.327,0,0,0,91.262-9.9A754.1,754.1,0,0,0,741.2,457.015c25.281-9.645,51.319-19.576,79.92-30.471l10.619-4.215c30.213-11.538,60.655-14.967,90.309-18.9,29.193-3.787,59.439-8.68,87.646-22.648l.164-.107c27.911-14.182,51.746-36.865,73.181-59.12l7.857-8.18c25.314-26.506,50.891-54.119,81.334-73.266,30.936-19.361,65.718-31.435,99.317-43.009,29.785-10.252,60.425-20.862,87.745-36.472l6.246-3.715c19-11.61,38.169-20.147,56.71-28.256,24.229-10.609,49.313-21.255,73.773-38.33,16.668-11.538,32.152-26.363,47.374-40.366,9.567-8.788,19.462-18,29.588-25.827,22.816-18.29,58.058-37.008,90.736-25.4l-.362,1c-32.284-11.467-67.165,7.109-89.75,25.184-10.126,7.823-19.988,17.039-29.555,25.791-15.254,14-30.771,28.863-47.505,40.473-24.558,17.147-49.675,27.792-73.937,38.437-18.542,8.037-37.675,16.611-56.612,28.22l-6.279,3.715c-27.385,15.646-58.091,26.256-87.909,36.544-30.41,10.467-61.74,21.29-90.309,37.615L1172.69,241c-30.278,19.076-55.823,46.653-81.1,73.052l-7.824,8.18c-21.533,22.362-45.434,45.117-73.477,59.406Z" transform="translate(9.284 4.851)" fill="#264586"/>
      </g>
      <g id="Gruppe_44" data-name="Gruppe 44" transform="translate(4.701 79.845)">
        <path id="Pfad_292" data-name="Pfad 292" d="M1037.223,375.056l-6.444,3.107c-29.391,13.606-61.116,16.785-91.427,19.428-32.941,2.571-66.409,4.786-99.12,17.642l-.2.071c-34.158,13.714-63.91,29.463-93.3,43.962-28.963,14.214-59.636,28.07-95.273,36.677l-1.151.286c-36.821,8.214-73.049,9.178-108.029,7.214-28.109-1.107-56.875-3.964-85.772-4.393-28.766-.786-58.518.607-87.482.429a731.564,731.564,0,0,1-136.861-13.392c-8.087-1.321-16.109-3.071-24.1-5.107-35.867-7.893-72.951-20.856-110.1-36.927-8.219-3.643-16.438-7.357-24.427-10.928C38.5,415.625,5.851,396.7-9.337,377.591l.789-.643c15.024,19,47.6,37.82,82.485,55.212,7.956,3.571,16.175,7.25,24.394,10.928,37.084,16.035,74.1,29.034,109.936,36.855,7.956,2.036,15.977,3.786,24.065,5.107a726.548,726.548,0,0,0,136.7,13.392c29,.214,58.749-1.107,87.515-.428,28.93.428,57.729,3.286,85.805,4.393,34.914,1.964,71.077,1,107.766-7.178l1.151-.321c35.539-8.571,66.146-22.392,95.043-36.57,29.424-14.5,59.176-30.284,93.4-44.034l.2-.071c32.876-12.857,66.442-15.142,99.416-17.678,30.245-2.643,61.872-5.821,91.1-19.356l6.411-3.071c27.879-14.178,50.957-36.284,72.063-57.819l11.211-11.642c25.708-26.856,51.647-54.89,82.682-74,30.771-19.106,65.389-30.391,98.824-41.319,35.933-11.678,72.918-23.642,104.281-44.926,15.747-10.607,31.3-19.642,46.42-28.141,22.98-12.964,44.711-25.035,67.625-42.069,12-9,23.769-19.5,35.275-29.534a405.251,405.251,0,0,1,33.27-27.106c20.383-14.749,51.582-29.391,80.085-18.142l-.394,1c-28.141-11.142-58.946,3.464-79.164,17.963a422.754,422.754,0,0,0-33.172,27.07c-11.506,10-23.276,20.57-35.341,29.57-22.98,17.106-44.711,29.177-67.756,42.177-15.09,8.464-30.64,17.463-46.355,28.07-31.462,21.285-68.546,33.32-104.544,45.069-31.035,10.142-63.088,20.678-92.15,37.391l-6.443,3.857c-30.87,19-56.776,47-82.452,73.746l-11.211,11.678C1088.41,338.593,1065.233,360.806,1037.223,375.056Z" transform="translate(9.337 4.555)" fill="#264586"/>
      </g>
      <g id="Gruppe_45" data-name="Gruppe 45" transform="translate(3.057 89.451)">
        <path id="Pfad_293" data-name="Pfad 293" d="M1063.67,368.757c-4.011,2.14-8.153,4-12.328,5.743-30.739,12.843-63.713,14.983-95.4,16.16-35.571,1.463-71.9,1.962-106.615,15.875l-.986.428c-34.158,14.2-63.253,33.6-92.183,52.12-27.878,17.23-57.466,35.1-92.742,44.307l-6.246,1.641c-38.037,8.562-75.975,6.849-112.4,2.176-26.3-3.068-53.061-7.42-79.887-9.454-31.166-2.141-61.938-1.712-88.238-1.284-41.292,0-83.109-.927-123.875-4.887l-15.419-1.819c-8.186-1.106-16.668-1.748-24.953-3.46-40.7-6.35-79.1-18.586-113.782-33.212-42.574-17.766-88.3-46.84-108-78.625l.888-.5c19.528,31.536,64.929,60.5,107.47,78.161,34.585,14.626,72.918,26.827,113.552,33.177,8.252,1.677,16.734,2.354,24.887,3.425l15.419,1.819c40.733,3.96,82.518,4.887,123.809,4.887,26.3-.428,57.138-.856,88.337,1.32,26.859,2.033,53.653,6.386,79.953,9.418,36.328,4.673,74.167,6.386,112.04-2.14l6.213-1.641c35.111-9.168,64.633-26.969,92.413-44.164,29-18.55,58.124-37.957,92.413-52.262l.986-.392c34.881-13.984,71.34-14.484,107.01-15.982,31.593-1.177,64.436-3.282,94.977-16.053a134.719,134.719,0,0,0,12.263-5.708c28.043-14.662,51.615-36.815,71.406-57.007l14.2-14.662c26.136-27.4,52.765-55.758,84.359-75.058l4.405-2.6c29.752-17.159,62.825-27.326,94.78-37.065,39.582-11.986,80.249-24.223,113.585-49.123,5.03-3.71,9.928-7.349,14.761-10.952,27.78-20.619,54.179-39.491,82.978-63.036l19.4-16.125c12.986-11.2,26.662-22.153,40.667-31C1621.733.175,1648.822-10.67,1673.347.318l-.46.963c-24.131-10.809-50.793-.071-68.611,10.773-13.939,8.811-27.616,19.763-40.568,30.929-6.411,5.351-13.019,10.845-19.4,16.16-28.832,23.545-55.231,42.416-83.011,63.071q-7.249,5.351-14.761,10.916c-33.5,25.043-74.266,37.279-113.914,49.337-31.889,9.7-64.929,19.87-94.55,36.958l-4.373,2.6c-31.495,19.193-58.058,47.518-84.128,74.844-4.668,4.816-9.5,9.775-14.235,14.662C1115.482,331.8,1091.845,354.024,1063.67,368.757Z" transform="translate(9.387 4.262)" fill="#264586"/>
      </g>
      <g id="Gruppe_46" data-name="Gruppe 46" transform="translate(1.479 139.143)">
        <path id="Pfad_294" data-name="Pfad 294" d="M1090.285,334.292a181.309,181.309,0,0,1-18.41,7.726c-32.185,11.342-66.639,12.2-99.777,12.164-38.168.23-77.257-.953-113.782,12.92l-1.907.723c-33.862,13.38-61.9,34.684-90.046,55.264-26.925,19.068-55.823,38.76-90.868,48.163l-9.205,2.3c-38.99,8.35-78.375,4.142-115.985-2.63-25.446-4.34-51.253-9.7-76.995-12.854-26.465-2.827-54.508-3.814-89.027-3.025-42.8.559-86.726,2.367-130.056.888l-11.605-.658c-9.271-.592-17.72-1.118-25.774-1.644-44.612-4.307-83.372-14.1-117.333-27.221l-5.523-2.4C39.747,401.292,6.74,372.329-9.435,342.642l.953-.329c16.043,29.424,48.853,58.223,102.835,80.841l5.49,2.367c33.862,13.052,72.523,22.881,117.037,27.155l25.742,1.644,11.572.658c43.33,1.479,87.252-.329,130.056-.921,34.519-.723,62.661.23,89.191,3.09,25.807,3.123,51.647,8.515,77.126,12.854,40.371,7.167,83.076,11.835,124.664.329,34.848-9.337,63.647-29,90.474-48,28.24-20.613,56.349-41.916,90.342-55.4l1.94-.723c36.722-13.939,75.942-12.756,114.21-12.986,33.04.033,67.362-.855,99.383-12.1,32.613-11.638,59.406-32.185,88.863-59.538,5.622-5.359,11.408-10.849,16.964-16.142,26.728-25.709,53.817-52.4,86.2-70.255l2.7-1.479c30.443-16.208,64.568-25.15,97.542-33.632,43.1-11.112,87.252-22.027,122.034-48.754,18.706-14.367,34.486-29.391,51.45-45.007,9.534-8.876,19.462-17.884,30.147-26.794,15.747-13.249,33.106-26.366,51.549-34.914l2.926-1.282c21.04-9.041,40.568-9.6,56.086-2.236l-.493.855c-18.969-9.041-40.174-4.241-55.264,2.268l-2.86,1.282c-18.312,8.449-35.637,21.533-51.319,34.782-10.652,8.844-20.58,17.851-30.081,26.728-16.964,15.616-32.777,30.64-51.549,45.072-34.914,26.794-79.2,37.807-122.461,48.919-32.875,8.482-66.935,17.391-97.279,33.566l-2.63,1.447c-32.251,17.753-59.307,44.415-86,70.058l-16.964,16.175C1137.263,304.408,1115.2,322.194,1090.285,334.292Z" transform="translate(9.435 3.98)" fill="#264586"/>
      </g>
      <g id="Gruppe_47" data-name="Gruppe 47" transform="translate(0 107.356)">
        <path id="Pfad_295" data-name="Pfad 295" d="M1115.817,357.69a161.858,161.858,0,0,1-23.473,10.391c-33.566,11.957-69.828,11.494-104.38,10.5-40.9-1.352-82.452-3.915-120.85,11.993l-2.729,1.139c-33.6,14.519-60.327,41.743-87.843,67.472-25.873,24.2-54.113,48.86-88.9,60.177-42.968,14.2-88.139,5.979-130.253-4.769-25.084-6.085-50.464-13.736-75.647-18.149-72.491-12.455-146.165.142-223.06,1.993l-37.215-.356c-53.554-2.206-98.725-14.448-135.25-32.562-46.848-23.1-79.625-58.22-95.7-95.87l.953-.32c19.068,44.519,58.255,78.539,101.684,98.753,43.593,20.32,90.6,27.295,128.28,28.967,12.328.107,24.953.249,37.182.356,76.929-1.886,150.636-14.484,223.324-1.993,25.248,4.448,50.661,12.1,75.811,18.185,38.5,9.893,79.263,17.4,118.845,7.829,3.583-.89,7.167-1.886,10.75-3.06,34.519-11.21,62.694-35.764,88.5-59.892,27.55-25.836,54.376-53.1,88.172-67.757l2.794-1.1c38.629-16.014,80.282-13.452,121.311-12.1,34.421,1,70.584,1.495,103.985-10.427,45.073-15.943,80.348-51.707,113.421-86.226,27.352-28.5,55.132-58.042,88.369-77.579l1.249-.712c31.1-17.971,66.474-27.081,100.566-35.622,48.82-12.171,94.287-22.811,129.661-56.084,14.4-13.63,26.037-30.142,37.478-46.227,8.679-12.064,17.753-24.8,28.174-35.693,23.44-24.982,63.22-43.416,91.624-25.516l-.526.854c-27.977-17.544-67.2.676-90.375,25.373-10.389,10.854-19.43,23.558-28.109,35.587-11.441,16.121-23.112,32.668-37.61,46.369-35.571,33.487-83.339,44.661-130.154,56.369-33.993,8.505-69.334,17.615-100.27,35.515l-1.249.712c-33.106,19.43-60.853,48.9-88.106,77.365C1178.971,309.969,1150.4,339.257,1115.817,357.69Z" transform="translate(9.48 3.718)" fill="#264586"/>
      </g>
    </g>
  </g>
</svg>
